<svg xmlns="http://www.w3.org/2000/svg" xmlns:xlink="http://www.w3.org/1999/xlink" width="809.282" height="812.133" viewBox="0 0 809.282 812.133">
  <defs>
    <linearGradient id="linear-gradient" x1="0.141" y1="0.79" x2="0.912" y2="0.347" gradientUnits="objectBoundingBox">
      <stop offset="0" stop-color="#fda000"/>
      <stop offset="1" stop-color="#2dcaf9"/>
    </linearGradient>
    <linearGradient id="linear-gradient-2" x1="0.167" y1="0.71" x2="0.853" y2="0.156" xlink:href="#linear-gradient"/>
    <linearGradient id="linear-gradient-3" x1="0.148" y1="0.727" x2="0.895" y2="0.248" xlink:href="#linear-gradient"/>
    <linearGradient id="linear-gradient-4" x1="0.14" y1="0.715" x2="0.952" y2="0.209" xlink:href="#linear-gradient"/>
    <linearGradient id="linear-gradient-5" x1="0.174" y1="0.695" x2="0.989" y2="0.205" xlink:href="#linear-gradient"/>
  </defs>
  <g id="메인" transform="translate(-986.746 -877.231)">
    <path id="Path_43" data-name="Path 43" d="M1642.982,922.961c-68.975-37.655-163.54-56.078-232.981-39.768-31.72,7.451-59.521,25.428-86.572,43.078l-158.7,103.548c-22.7,14.809-45.911,30.1-61.681,51.729-15.058,20.652-22.224,45.594-28.37,70.143A1244.889,1244.889,0,0,0,1042.7,1339.23c-2.5,26.97-4.06,54.555,2.971,80.765,7.485,27.9,24.363,52.7,44.031,74.38,104.591,115.281,276.731,143.051,434.8,157.09,38.082,3.382,77.624,6.217,113.548-6.46,48.893-17.253,83.488-61.329,100.8-108.733s19.839-98.467,22.2-148.679c3.708-78.987,10.651-82.507,14.359-161.494,1.077-22.943,1.138-110.742-7.365-143.954-11.053-43.175-59.356-119.932-125.063-159.184" opacity="0.2" fill="url(#linear-gradient)"/>
    <path id="Path_44" data-name="Path 44" d="M987.251,1245.618c5.157,67.717-20.9,99.113,70.871,209.433,49.108,59.033,112.027,121.865,214.137,141,103.6,19.415,216.172-4.421,307.162-41.4,91.228-37.074,171.342-90.093,201.937-156.23,33.076-71.5,4.936-148.441-32.144-219.178-23.244-44.342-51.024-89.039-100.279-123.7-73.413-51.664-148.361-53.5-257.558-57.15-85.527-2.861-214.259-14.976-280.69,19.423-100.947,52.272-116.766,133.485-123.941,227.858" opacity="0.2" fill="url(#linear-gradient-2)"/>
    <path id="Path_45" data-name="Path 45" d="M1067.245,1416.117c56.513,128.962,217.716,214,358.442,209.425,38.665-1.257,76.831-8.818,114.612-17.134,35.294-7.769,71.045-16.456,102.176-34.812,40.355-23.794,70.364-62.661,89.672-105.345,58.257-128.789,19.513-285.865-65.992-398.423C1620.485,1009.708,1560.253,958,1488.03,936c-62.259-18.964-129.139-14.827-193.571-5.641-96.887,13.814-202.073,45.653-252.3,129.648-25.878,43.277-27.575,88.262-23.341,138.213,4.2,49.56,9.09,65.884,17.753,114.913,7.876,44.576,17.147,74.989,30.674,102.981" opacity="0.2" fill="url(#linear-gradient-3)"/>
    <path id="Path_46" data-name="Path 46" d="M1319.137,965.267c-181.544,7.967-210.721,91.623-255.065,213.248-42.393,116.274-41.373,253.675,31.376,344.459,29.958,37.384,44.6,67.368,85.256,83.383,107.234,42.239,202.282,23.906,312.65-3.558,43.289-10.772,124.942-33.017,158.3-68.595,37.333-39.823,39.907-80.008,52.346-138.8,15.584-73.662,23.706-153.878.251-224.32-26.355-79.149-85.575-118.358-155.771-158.007-61.909-34.968-115.872-51.791-229.338-47.808" opacity="0.2" fill="url(#linear-gradient-4)"/>
    <path id="Path_47" data-name="Path 47" d="M1250.393,1021.551c-88.324,32.118-166.39,118.651-194.327,193.941-15.288,41.2-16.9,86.022-18.338,129.946-2.086,63.617-2.907,131.931,32.426,184.874,33.343,49.96,74.64,102.4,130.055,125.573,57.2,23.916,132.72,24.331,193.716,30.679,33.118,3.446,60.021,5.027,88.206-3.192,74.691-21.782,121.64-128.987,146.385-153.922,96.962-97.709,91.4-140.578,86.236-278.136-1.174-31.261-5.463-63.082-19.4-91.091-15.989-32.138-43.736-57.168-74.258-76.062-93.573-57.927-196.061-112.795-370.7-62.61" opacity="0.2" fill="url(#linear-gradient-5)"/>
  </g>
</svg>
